<?xml version="1.0" standalone="no"?><!DOCTYPE svg PUBLIC "-//W3C//DTD SVG 1.1//EN" "http://www.w3.org/Graphics/SVG/1.1/DTD/svg11.dtd"><svg t="1669707609121" class="icon" viewBox="0 0 1024 1024" version="1.1" xmlns="http://www.w3.org/2000/svg" p-id="1395" xmlns:xlink="http://www.w3.org/1999/xlink" width="200" height="200"><path d="M522.5472 809.5232H322.56c-121.1904 0-219.4432-98.2528-219.4432-219.4432v-182.272h638.8224v182.272c0 121.1904-98.2528 219.4432-219.392 219.4432z" fill="#EF8F9F" p-id="1396"></path><path d="M250.0096 407.808c0 77.4656-30.976 375.7568 185.2416 401.664-119.6032 0-242.0736-6.5536-320.5632-157.5424-13.7728-74.496-11.5712-244.1728-11.5712-244.1728s85.248 0.0512 146.8928 0.0512z" fill="#ED98AB" p-id="1397"></path><path d="M667.9552 414.976v120.4736c0 50.3808-11.264 223.9488-209.3568 266.9568 84.3264 0 205.2608-21.6576 242.432-108.6976s40.96-194.56 40.96-278.7328h-74.0352z" fill="#E06C85" p-id="1398"></path><path d="M315.904 307.5584c-36.352 0-65.8944-29.5424-65.8944-65.8944S279.552 175.7696 315.904 175.7696 381.7984 205.312 381.7984 241.664 352.256 307.5584 315.904 307.5584z m0-80.5888c-8.0896 0-14.6944 6.6048-14.6944 14.6944s6.6048 14.6944 14.6944 14.6944 14.6944-6.6048 14.6944-14.6944-6.6048-14.6944-14.6944-14.6944z" fill="#E2E5F1" p-id="1399"></path><path d="M498.8928 152.7296m-50.9952 0a50.9952 50.9952 0 1 0 101.9904 0 50.9952 50.9952 0 1 0-101.9904 0Z" fill="#E2E5F1" p-id="1400"></path><path d="M791.1936 613.0688h-16.7424c-17.9712 0-32.512-14.5408-32.512-32.512v-243.712c0-17.9712 14.5408-32.512 32.512-32.512h16.7424c79.3088 0 143.616 64.3072 143.616 143.616v21.504c0 79.3088-64.3072 143.616-143.616 143.616z" fill="#FAC573" p-id="1401"></path><path d="M813.2096 315.904s67.2256 55.8592 67.2256 142.7968-91.0848 117.504-126.1056 109.056c3.0208 39.936 28.5696 68.608 109.4656 23.7568 60.16-29.0304 71.0144-94.3616 71.0144-140.7488s-28.672-121.1392-121.6-134.8608z" fill="#EF981A" p-id="1402"></path><path d="M791.1936 283.8528h-33.024c-11.5712-36.3008-45.568-62.6688-85.6576-62.6688H172.544c-49.5616 0-89.856 40.3456-89.856 89.856v252.4672c0 146.8928 119.5008 266.4448 266.4448 266.4448h146.8928c122.6752 0 226.2016-83.4048 257.024-196.4544h38.144c90.4704 0 164.096-73.6256 164.096-164.096v-21.504c0-90.4704-73.6256-164.0448-164.096-164.0448zM172.544 262.144h500.0192c26.9824 0 48.896 21.9648 48.896 48.896v76.288H123.5968v-76.288c0-26.9312 21.9648-48.896 48.9472-48.896z m323.4304 526.8992H349.0816c-124.3136 0-225.4848-101.1712-225.4848-225.4848V428.288h597.8624v135.2704c0 124.3136-101.12 225.4848-225.4848 225.4848z m418.3552-319.5904c0 67.8912-55.2448 123.136-123.136 123.136h-28.7744V324.8128h28.7744c67.8912 0 123.136 55.2448 123.136 123.136v21.504zM863.232 927.3344h-27.2384c-11.3152 0-20.48-9.1648-20.48-20.48s9.1648-20.48 20.48-20.48h27.2384c11.3152 0 20.48 9.1648 20.48 20.48s-9.1648 20.48-20.48 20.48zM767.1808 927.3344H138.0352c-11.3152 0-20.48-9.1648-20.48-20.48s9.1648-20.48 20.48-20.48h629.0944c11.3152 0 20.48 9.1648 20.48 20.48s-9.1136 20.48-20.4288 20.48z" fill="#211D38" p-id="1403"></path><path d="M188.3648 709.6832c-3.3792 0-6.7584-1.3312-9.2672-3.9424-47.4624-49.664-52.5824-118.016-52.5824-145.1008v-32.9728a12.8 12.8 0 0 1 25.6 0v32.9728c0 18.7392 3.2768 83.3024 45.4656 127.4368 4.864 5.12 4.7104 13.2096-0.4096 18.1248-2.4064 2.304-5.5808 3.4816-8.8064 3.4816zM139.3664 479.5392a12.8 12.8 0 0 1-12.8-12.8v-18.8928a12.8 12.8 0 0 1 25.6 0v18.8928a12.8 12.8 0 0 1-12.8 12.8zM777.4208 521.4208a12.8 12.8 0 0 1-12.8-12.8v-70.144a12.8 12.8 0 0 1 25.6 0v70.144a12.8 12.8 0 0 1-12.8 12.8zM777.4208 393.984a12.8 12.8 0 0 1-12.8-12.8v-13.7216a12.8 12.8 0 0 1 25.6 0v13.7216a12.8 12.8 0 0 1-12.8 12.8z" fill="#FFFFFF" p-id="1404"></path><path d="M809.3184 834.0992c-33.536 0-60.7744-27.2896-60.7744-60.7744s27.2896-60.7744 60.7744-60.7744 60.7744 27.2896 60.7744 60.7744-27.2384 60.7744-60.7744 60.7744z m0-80.5888c-10.9056 0-19.8144 8.9088-19.8144 19.8144s8.9088 19.8144 19.8144 19.8144 19.8144-8.9088 19.8144-19.8144-8.8576-19.8144-19.8144-19.8144z" fill="#211D38" p-id="1405"></path></svg>